HIERARCHY
ROOT Bip001_Pelvis
{
  OFFSET 34.4345 95.6767 -26.8758
  CHANNELS 6 Xposition Yposition Zposition Zrotation Xrotation Yrotation
  JOINT Bip001_Spine
  {
    OFFSET 1.4188e-005 10.2191 -0.0116013
    CHANNELS 3 Zrotation Xrotation Yrotation
    JOINT Bip001_L_Thigh
    {
      OFFSET 11.0458 -10.2192 0.0116197
      CHANNELS 3 Zrotation Xrotation Yrotation
      JOINT Bip001_L_Calf
      {
        OFFSET -0.707118 -44.0221 0.360014
        CHANNELS 3 Zrotation Xrotation Yrotation
        JOINT Bip001_L_Foot
        {
          OFFSET -0.651902 -40.5938 -3.56146
          CHANNELS 3 Zrotation Xrotation Yrotation
          JOINT Bip001_L_Toe0
          {
            OFFSET 0.0530839 -10.2181 13.1504
            CHANNELS 3 Zrotation Xrotation Yrotation
            End Site
            {
              OFFSET -1.02532e-005 0 7.55606
            }
          }
        }
      }
    }
    JOINT Bip001_R_Thigh
    {
      OFFSET -11.0458 -10.2191 0.0115893
      CHANNELS 3 Zrotation Xrotation Yrotation
      JOINT Bip001_R_Calf
      {
        OFFSET 0.706994 -44.0221 0.35984
        CHANNELS 3 Zrotation Xrotation Yrotation
        JOINT Bip001_R_Foot
        {
          OFFSET 0.651786 -40.5938 -3.5613
          CHANNELS 3 Zrotation Xrotation Yrotation
          JOINT Bip001_R_Toe0
          {
            OFFSET -0.0531479 -10.2181 13.1504
            CHANNELS 3 Zrotation Xrotation Yrotation
            End Site
            {
              OFFSET -1.02894e-005 0 7.55606
            }
          }
        }
      }
    }
    JOINT Bip001_Spine1
    {
      OFFSET 1.87041e-005 14.5736 1.08638
      CHANNELS 3 Zrotation Xrotation Yrotation
      JOINT Bip001_Spine2
      {
        OFFSET 2.24614e-005 14.5058 -1.69078
        CHANNELS 3 Zrotation Xrotation Yrotation
        JOINT Bip001_Neck
        {
          OFFSET 2.20278e-005 15.3945 -0.489414
          CHANNELS 3 Zrotation Xrotation Yrotation
          JOINT Bip001_L_Clavicle
          {
            OFFSET 6.06036 -0.000579998 0.00836775
            CHANNELS 3 Zrotation Xrotation Yrotation
            JOINT Bip001_L_UpperArm
            {
              OFFSET 11.5509 -0.0600302 0.00193952
              CHANNELS 3 Zrotation Xrotation Yrotation
              JOINT Bip001_L_Forearm
              {
                OFFSET 25.9523 0.0806089 -2.15551
                CHANNELS 3 Zrotation Xrotation Yrotation
                JOINT Bip001_L_Hand
                {
                  OFFSET 32.2475 0.153767 1.63968
                  CHANNELS 3 Zrotation Xrotation Yrotation
                  JOINT Bip001_L_Finger0
                  {
                    OFFSET 6.04639 -2.20976 5.90322
                    CHANNELS 3 Zrotation Xrotation Yrotation
                    End Site
                    {
                      OFFSET 4.22375 -1.43895 0.606485
                    }
                  }
                  JOINT Bip001_L_Finger1
                  {
                    OFFSET 11.0826 -0.704819 -0.198153
                    CHANNELS 3 Zrotation Xrotation Yrotation
                    End Site
                    {
                      OFFSET 6.20027 -0.397518 -0.0787166
                    }
                  }
                }
              }
            }
          }
          JOINT Bip001_R_Clavicle
          {
            OFFSET -6.06037 -0.000563197 0.00835105
            CHANNELS 3 Zrotation Xrotation Yrotation
            JOINT Bip001_R_UpperArm
            {
              OFFSET -11.5509 -0.0599978 0.00190698
              CHANNELS 3 Zrotation Xrotation Yrotation
              JOINT Bip001_R_Forearm
              {
                OFFSET -25.9523 0.0806822 -2.15589
                CHANNELS 3 Zrotation Xrotation Yrotation
                JOINT Bip001_R_Hand
                {
                  OFFSET -32.2475 0.153859 1.63989
                  CHANNELS 3 Zrotation Xrotation Yrotation
                  JOINT Bip001_R_Finger0
                  {
                    OFFSET -6.04641 -2.20976 5.90317
                    CHANNELS 3 Zrotation Xrotation Yrotation
                    End Site
                    {
                      OFFSET -4.22376 -1.43895 0.60647
                    }
                  }
                  JOINT Bip001_R_Finger1
                  {
                    OFFSET -11.0826 -0.704794 -0.198182
                    CHANNELS 3 Zrotation Xrotation Yrotation
                    End Site
                    {
                      OFFSET -6.20028 -0.397504 -0.0787333
                    }
                  }
                }
              }
            }
          }
          JOINT Bip001_Head
          {
            OFFSET 1.09673e-005 11.2744 2.05948
            CHANNELS 3 Zrotation Xrotation Yrotation
            End Site
            {
              OFFSET 2.89576e-005 20.8808 -2.77728e-005
            }
          }
        }
      }
    }
  }
}
MOTION
Frames:	12
Frame Time:	0.04
33.2546 95.7888 -31.525 0.504886 -2.85395 -9.40024 0.150963 2.55175 -0.370528 4.047 1.90432 13.8571 0.350856 5.46309 4.86273 0.847838 -2.71567 -0.00899989 1.39485 -5.319 -0.609907 -6.14276 -5.22979 1.80774 0.433123 12.2439 0.888464 -3.56133 -8.64064 5.68778 2.29046 -7.87497 2.55862 0.320532 5.10243 -0.748443 0.318349 5.10245 -0.748594 2.29711 -11.237 3.64268 -25.0789 14.9647 -6.10105 -44.4347 42.0914 -5.09489 10.6073 -11.4513 -27.8164 12.7284 -0.821971 -5.25675 -3.53112e-031 -6.36111e-015 -3.18055e-015 0 0 -0 25.6084 16.9141 13.644 59.9704 18.8631 -7.28935 -17.232 11.0552 11.6057 9.68845 -8.90581 9.3215 -3.97569e-016 0 2.38542e-015 -3.97569e-016 -6.36111e-015 2.38542e-015 -1.57785 -3.7078 4.24837 
33.3007 95.7662 -31.6159 0.850595 -3.15064 -8.40721 0.167525 2.53234 -0.520194 3.58975 2.0236 15.8747 0.745496 5.21328 2.23867 0.989945 -2.53808 -0.00899861 1.62375 -5.521 -0.893562 -6.50918 -5.14113 1.69047 0.462934 12.9137 1.09187 -4.02454 -8.95042 4.93576 2.36724 -8.10238 2.62412 0.35967 5.05811 -1.04946 0.358978 5.0581 -1.04944 2.91194 -10.5847 3.75029 -25.1433 14.4374 -6.71821 -45.3881 41.7879 -4.26958 10.4896 -10.6151 -29.1751 12.1414 -0.517473 -4.82521 3.18055e-015 -6.36111e-015 -3.18055e-015 3.18055e-015 -3.18056e-015 -0 25.0928 16.1733 13.2051 61.7807 22.9671 -8.32163 -17.6595 7.55517 10.9747 14.1196 -8.90733 7.50413 4.96962e-016 -6.36111e-015 3.97569e-016 -1.98785e-016 -3.18056e-015 -7.95139e-016 -2.63417 -4.48913 4.69757 
33.2562 95.7237 -31.7371 0.936138 -3.29584 -7.5023 0.233373 2.52959 -0.765404 3.67805 1.84998 17.8221 0.719341 5.4978 -0.245425 1.14718 -2.74466 -0.00900011 1.76448 -5.77815 -0.998177 -6.53289 -5.16561 1.34728 0.329337 13.4674 1.38523 -4.43957 -9.18175 4.42136 2.45773 -8.37978 2.71741 0.501322 5.05579 -1.5434 0.501318 5.05579 -1.5434 3.54081 -10.0763 4.15406 -24.9274 14.1051 -7.44626 -46.5457 41.8282 -3.35502 11.4115 -8.101 -29.8312 11.0155 -0.159385 -4.86603 3.18055e-015 -1.59028e-015 -4.77083e-015 3.18055e-015 -3.18056e-015 -6.36111e-015 24.4065 15.1898 11.8253 63.3908 24.9634 -9.80337 -20.2551 7.88294 11.0731 15.4697 -9.94303 8.41017 -1.98785e-016 -6.36111e-015 -9.93923e-017 1.09332e-015 -6.36111e-015 -4.96962e-016 -2.92567 -5.52717 5.27419 
33.2113 95.6505 -31.9014 0.9086 -3.15191 -7.19307 0.312084 2.48075 -1.02783 3.8428 1.34844 17.6302 0.615896 6.14704 -0.218161 1.35456 -2.87982 -0.0139637 1.70892 -6.18448 -0.861733 -6.35877 -5.59204 1.79927 0.20304 14.0733 1.55509 -4.81589 -9.28705 3.91941 2.57449 -8.66155 2.72865 0.665651 4.95548 -2.07221 0.669642 4.95544 -2.07209 4.52814 -9.50769 4.81856 -25.3426 13.9377 -8.60297 -47.6931 42.2395 -1.45127 13.3596 -4.24584 -30.5851 9.83251 0.250033 -4.97523 -3.18055e-015 3.18055e-015 4.77083e-015 -6.36111e-015 3.18056e-015 3.18055e-015 23.7693 13.9925 9.79857 63.0078 26.8466 -10.1808 -21.3484 7.83006 11.0608 16.3205 -10.7685 11.4675 1.10348e-031 3.18055e-015 -1.98785e-015 5.96354e-016 3.18056e-015 -1.98785e-015 -3.35557 -6.48833 6.20758 
33.3018 95.5461 -32.0262 1.11524 -3.07794 -7.58567 0.340759 2.44091 -1.26035 3.49416 0.999769 17.5768 0.739189 6.68187 0.33712 2.01117 -2.8206 -0.0323027 1.88151 -6.56177 -0.898326 -6.48108 -6.34334 2.79503 0.154113 15.0952 1.74123 -5.22073 -9.61047 3.47229 2.68645 -8.98073 2.81641 0.734299 4.87363 -2.53877 0.736211 4.8738 -2.5387 5.20584 -8.99547 5.65048 -25.5807 13.9006 -9.84557 -48.7491 44.4256 0.908264 14.8372 -1.91377 -31.2721 9.32318 0.439993 -5.23574 1.59028e-014 6.36111e-015 -0 1.27222e-014 4.77083e-015 7.95139e-016 23.3046 12.9657 8.28074 62.3088 27.7287 -10.9131 -23.1017 7.54124 11.9791 18.0988 -10.8714 14.0131 7.95139e-016 6.36111e-015 -0 7.95139e-016 9.54167e-015 -7.95139e-016 -3.6861 -7.06837 7.25388 
33.4061 95.4662 -32.0577 0.976093 -3.18746 -8.39942 0.440841 2.49742 -1.44762 3.50431 0.875 17.6527 0.638821 7.4379 1.0509 2.03699 -3.33397 -0.0184357 1.75726 -6.63729 -0.724375 -6.38929 -6.69173 3.43472 -0.0368375 15.4957 2.01096 -5.33209 -9.72265 3.58784 2.76459 -9.2332 2.92365 0.946117 4.98277 -2.91859 0.946116 4.98278 -2.91858 5.22195 -8.96987 6.52897 -25.1613 14.2994 -10.9919 -49.4776 47.6974 2.69298 15.9353 -0.407871 -31.1862 8.40298 0.365902 -5.36811 -1.65521e-032 1.19271e-015 7.95139e-016 -5.51738e-033 1.59028e-015 1.98785e-016 23.2438 12.4202 6.97595 62.1824 27.3383 -12.0664 -25.0034 8.44395 13.6166 17.059 -12.0499 14.0243 -1.19271e-015 -6.36111e-015 2.38542e-015 -3.97569e-016 -6.36111e-015 2.38542e-015 -3.46949 -7.32583 8.05137 
33.5545 95.401 -32.0459 0.823923 -3.17076 -9.5831 0.534036 2.53687 -1.56463 3.58029 0.844113 17.8973 0.311201 8.07303 2.05981 2.03101 -3.97387 -0.00134988 1.67543 -6.63784 -0.587721 -6.37125 -7.04182 4.02396 -0.194309 15.627 2.27277 -5.25426 -9.82502 4.12538 2.86181 -9.50652 2.99913 1.13445 5.05819 -3.15638 1.13674 5.05807 -3.15675 5.09218 -8.82337 7.32208 -24.4459 14.4707 -12.0491 -50.2187 50.8998 4.30271 16.6961 1.18711 -31.2323 7.98205 0.111428 -5.2701 3.18055e-015 3.97569e-016 -1.39149e-015 3.18055e-015 3.97569e-016 -0 23.4052 11.5622 5.11455 60.6572 23.9724 -11.4967 -25.4151 8.37854 14.2434 15.4214 -12.6931 13.5697 3.97569e-016 0 -0 0 0 -0 -3.33902 -7.93225 8.77386 
33.838 95.2755 -31.9865 1.05757 -3.16228 -11.0794 0.525989 2.46468 -1.70339 2.97697 0.925486 17.561 0.268193 8.40696 3.73528 2.8606 -3.93234 -0.0172291 1.74465 -7.01379 -0.507665 -6.66248 -7.81627 4.81652 -0.391079 16.5723 2.86284 -5.37035 -10.3262 4.46151 3.04453 -10.0298 3.16313 1.12671 4.91249 -3.43411 1.12672 4.9125 -3.43411 5.06186 -7.75583 8.14021 -23.5613 13.7356 -13.4912 -53.3141 52.8293 7.72985 17.5646 1.50161 -31.8669 5.62154 0.110061 -5.23966 -3.18055e-015 0 -7.95139e-016 -3.18055e-015 0 7.95139e-016 23.2903 9.83569 3.48661 59.5898 19.9462 -11.8522 -26.4477 7.2221 15.381 13.4105 -12.9414 12.5059 3.97569e-016 -3.18055e-015 -0 -3.97569e-016 0 -0 -3.06443 -8.8496 9.57887 
33.9644 95.1136 -31.802 0.773827 -3.30364 -12.8666 0.679612 2.4486 -1.88501 2.99178 0.96958 19.0535 0.289248 9.7488 4.00958 2.99289 -4.84209 0.0106396 1.70775 -7.19235 -0.399096 -6.40334 -8.2496 5.80362 -0.835134 17.3037 3.12796 -5.37477 -10.7375 5.12218 3.22393 -10.5651 3.36682 1.44137 4.87124 -3.80411 1.44136 4.87131 -3.80412 4.84235 -7.03405 9.24613 -22.9226 13.3712 -14.5893 -56.6429 52.6189 11.4826 19.0095 3.23655 -33.2402 4.58399 0.396396 -5.6604 3.18055e-015 -3.18055e-015 2.38542e-015 3.18055e-015 -3.18056e-015 2.38542e-015 23.6536 8.15816 1.09503 55.6526 12.2266 -11.5508 -26.5668 7.86473 18.6751 8.02512 -11.1394 11.9168 -1.59028e-015 -3.18055e-015 1.59028e-015 -7.95139e-016 -1.59028e-015 -0 -3.10486 -9.62747 10.6486 
34.1066 94.9357 -31.5274 0.461415 -3.60824 -14.5714 0.898891 2.47974 -2.10668 2.88535 1.11913 19.4679 0.0874739 11.1077 4.90619 3.92312 -5.31567 0.0110476 1.57985 -7.31971 -0.129106 -6.41197 -8.5563 6.34117 -1.06038 18.1503 3.40214 -5.30858 -11.2518 5.76302 3.35739 -11.0347 3.64066 1.89108 4.92319 -4.25797 1.89108 4.92263 -4.25795 3.80341 -6.34105 10.509 -21.6336 12.993 -15.8493 -59.989 51.669 15.0685 19.3965 3.5705 -34.9987 5.6177 0.521853 -5.98878 2.20695e-032 -1.59028e-015 7.95139e-016 -3.18055e-015 -3.18056e-015 7.95139e-016 24.5267 6.42925 -0.960973 52.0566 0.279885 -12.8451 -28.4964 6.23033 24.9945 3.33262 -9.52089 10.3375 -3.67752e-015 -7.95139e-016 1.59028e-015 1.78906e-015 -1.59028e-015 1.59028e-015 -2.7332 -10.5742 11.6258 
34.1898 94.7646 -31.1066 0.0827165 -4.35174 -15.8498 1.08982 2.50658 -2.34558 2.7156 2.0802 19.7725 -0.308536 11.7832 5.28116 5.54828 -5.21903 -0.004708 1.57605 -8.20565 0.169399 -6.61408 -8.24652 6.54241 -1.05816 19.0142 3.99009 -5.41431 -11.7807 6.00709 3.55809 -11.5357 3.7566 2.2977 4.96889 -4.74485 2.28721 4.96955 -4.74536 2.84147 -5.45312 11.6281 -20.4927 12.2887 -16.8615 -63.3535 50.493 18.7182 19.2256 3.05319 -37.092 6.4982 0.475432 -6.43877 6.36111e-015 1.59028e-015 -2.38542e-015 3.18055e-015 1.59028e-015 -3.18055e-015 24.0776 4.32392 -3.99515 48.8886 -13.6221 -14.0573 -30.7536 2.99766 35.0889 -4.70406 -9.47265 6.84156 -1.19271e-015 -3.18055e-015 3.18055e-015 -3.97569e-016 0 4.77083e-015 -2.73067 -10.9488 12.5423 
34.2037 94.4444 -30.6448 -0.384127 -5.25765 -16.5267 1.16544 2.46911 -2.59845 2.99217 2.82219 19.2327 -1.06737 13.3592 5.92766 8.06535 -4.93627 -0.0374194 1.73482 -9.4055 0.201142 -6.43845 -7.89342 6.86098 -1.31706 20.6095 4.68119 -6.02975 -12.6469 5.62365 3.68767 -12.0819 4.14379 2.43324 4.88184 -5.25375 2.43983 4.88176 -5.25334 3.14674 -3.73327 12.3509 -19.9655 10.6937 -18.0159 -67.7397 49.5996 23.0317 18.3837 1.29732 -38.9189 7.46975 0.367059 -6.86623 1.10348e-031 1.59028e-015 -3.97569e-015 8.82782e-032 1.59028e-015 -3.18055e-015 23.3716 1.62612 -6.8638 41.3378 -33.0815 -17.0413 -33.4437 4.65286 51.305 -8.28258 -10.269 5.11907 3.97569e-016 -9.54166e-015 -2.78298e-015 1.19271e-015 -3.18056e-015 -2.38542e-015 -3.56112 -11.1672 13.5326 
